<svg width="212" height="103" viewBox="0 0 212 103" fill="none" xmlns="http://www.w3.org/2000/svg">
<path d="M19.54 100C19.3533 100 19.19 99.93 19.05 99.79C18.91 99.65 18.84 99.4867 18.84 99.3C18.84 99.1833 18.8633 99.055 18.91 98.915L27.765 76.2C27.8583 75.9667 27.975 75.7917 28.115 75.675C28.2783 75.5583 28.5 75.5 28.78 75.5H29.97C30.25 75.5 30.46 75.5583 30.6 75.675C30.7633 75.7917 30.8917 75.9667 30.985 76.2L39.84 98.915C39.8867 99.055 39.91 99.1833 39.91 99.3C39.91 99.4867 39.84 99.65 39.7 99.79C39.56 99.93 39.3967 100 39.21 100H38.51C38.2767 100 38.1017 99.9417 37.985 99.825C37.8683 99.685 37.7867 99.5683 37.74 99.475L35.57 93.875H23.18L21.01 99.475C20.9867 99.5683 20.905 99.685 20.765 99.825C20.6483 99.9417 20.4733 100 20.24 100H19.54ZM24.02 91.775H34.73L29.375 77.985L24.02 91.775ZM60.2237 100C59.9903 100 59.8037 99.93 59.6637 99.79C59.5237 99.65 59.4537 99.4633 59.4537 99.23V76.27C59.4537 76.0367 59.5237 75.85 59.6637 75.71C59.8037 75.57 59.9903 75.5 60.2237 75.5H60.8887C61.122 75.5 61.3087 75.57 61.4487 75.71C61.5887 75.85 61.6587 76.0367 61.6587 76.27V97.9H73.7337C73.9903 97.9 74.1887 97.97 74.3287 98.11C74.4687 98.25 74.5387 98.4483 74.5387 98.705V99.23C74.5387 99.4633 74.4687 99.65 74.3287 99.79C74.1887 99.93 73.9903 100 73.7337 100H60.2237ZM92.2785 100C92.0918 100 91.9285 99.93 91.7885 99.79C91.6485 99.65 91.5785 99.4867 91.5785 99.3C91.5785 99.1833 91.6018 99.055 91.6485 98.915L100.503 76.2C100.597 75.9667 100.713 75.7917 100.853 75.675C101.017 75.5583 101.238 75.5 101.518 75.5H102.708C102.988 75.5 103.198 75.5583 103.338 75.675C103.502 75.7917 103.63 75.9667 103.723 76.2L112.578 98.915C112.625 99.055 112.648 99.1833 112.648 99.3C112.648 99.4867 112.578 99.65 112.438 99.79C112.298 99.93 112.135 100 111.948 100H111.248C111.015 100 110.84 99.9417 110.723 99.825C110.607 99.685 110.525 99.5683 110.478 99.475L108.308 93.875H95.9185L93.7485 99.475C93.7251 99.5683 93.6435 99.685 93.5035 99.825C93.3868 99.9417 93.2118 100 92.9785 100H92.2785ZM96.7585 91.775H107.468L102.113 77.985L96.7585 91.775ZM132.962 100C132.729 100 132.542 99.93 132.402 99.79C132.262 99.65 132.192 99.4633 132.192 99.23V76.305C132.192 76.0483 132.262 75.85 132.402 75.71C132.542 75.57 132.729 75.5 132.962 75.5H141.117C143.567 75.5 145.515 76.0833 146.962 77.25C148.432 78.4167 149.167 80.19 149.167 82.57C149.167 84.4367 148.7 85.93 147.767 87.05C146.834 88.17 145.539 88.9283 143.882 89.325L149.517 98.915C149.587 99.055 149.622 99.1833 149.622 99.3C149.622 99.4867 149.552 99.65 149.412 99.79C149.272 99.93 149.109 100 148.922 100H148.502C148.129 100 147.849 99.9067 147.662 99.72C147.475 99.51 147.312 99.2883 147.172 99.055L141.607 89.64H134.397V99.23C134.397 99.4633 134.327 99.65 134.187 99.79C134.047 99.93 133.849 100 133.592 100H132.962ZM134.397 87.54H140.942C142.972 87.54 144.477 87.1317 145.457 86.315C146.46 85.475 146.962 84.2267 146.962 82.57C146.962 80.9133 146.46 79.6767 145.457 78.86C144.477 78.02 142.972 77.6 140.942 77.6H134.397V87.54ZM170.785 100C170.552 100 170.353 99.93 170.19 99.79C170.05 99.65 169.98 99.4633 169.98 99.23V76.305C169.98 76.0483 170.05 75.85 170.19 75.71C170.353 75.57 170.552 75.5 170.785 75.5H171.66C171.893 75.5 172.068 75.5583 172.185 75.675C172.302 75.7917 172.372 75.885 172.395 75.955L180.34 91.425L188.32 75.955C188.367 75.885 188.437 75.7917 188.53 75.675C188.647 75.5583 188.822 75.5 189.055 75.5H189.895C190.152 75.5 190.35 75.57 190.49 75.71C190.63 75.85 190.7 76.0483 190.7 76.305V99.23C190.7 99.4633 190.63 99.65 190.49 99.79C190.35 99.93 190.152 100 189.895 100H189.265C189.032 100 188.845 99.93 188.705 99.79C188.565 99.65 188.495 99.4633 188.495 99.23V80.26L181.81 93.42C181.717 93.6533 181.577 93.8283 181.39 93.945C181.227 94.0617 181.005 94.12 180.725 94.12H179.955C179.675 94.12 179.453 94.0617 179.29 93.945C179.127 93.8283 178.987 93.6533 178.87 93.42L172.185 80.26V99.23C172.185 99.4633 172.115 99.65 171.975 99.79C171.835 99.93 171.648 100 171.415 100H170.785Z" fill="white"/>
<path opacity="0.8" d="M9 60.9782H39.2412C55.4291 60.9782 68.6819 48.2591 69.4824 32.249H9V60.9782Z" fill="#F5B700" fill-opacity="0.8"/>
<path d="M39.2412 0.406815H9V29.136H69.4824C68.6819 13.1259 55.4291 0.406815 39.2412 0.406815Z" fill="#F5B700"/>
<path opacity="0.8" d="M76.3312 0.139984V30.3812C76.3312 46.5691 89.0503 59.8219 105.06 60.6224V0.139984L76.3312 0.139984Z" fill="#F5B700" fill-opacity="0.8"/>
<path d="M136.894 30.2412V0L108.164 0V60.4824C124.174 59.6819 136.894 46.4291 136.894 30.2412Z" fill="#F5B700"/>
<path d="M173.459 0.406815C157.271 0.406815 144.018 13.1259 143.218 29.136H203.611C202.811 13.1259 189.558 0.406815 173.37 0.406815" fill="#F5B700"/>
<path opacity="0.8" d="M173.459 60.9782C189.647 60.9782 202.899 48.2591 203.7 32.249H143.307C144.107 48.2591 157.36 60.9782 173.548 60.9782" fill="#F5B700" fill-opacity="0.8"/>
</svg>
