<svg width="1382" height="801" viewBox="0 0 1382 801" fill="none" xmlns="http://www.w3.org/2000/svg">
<g clip-path="url(#clip0_11_296)" transform="rotate(180 691 400.5)">
<path d="M1381.86 160.771H1158.56C1152.9 160.771 1148.32 165.35 1148.32 171.007V419.862C1148.32 425.519 1143.74 430.098 1138.08 430.098L943.101 430.098C937.445 430.098 932.866 434.677 932.866 440.333V537.572C932.866 543.229 928.286 547.808 922.63 547.808H781.519C775.862 547.808 771.283 543.229 771.283 537.572V369.525C771.283 363.869 766.704 359.29 761.047 359.29H656.805C651.148 359.29 646.569 363.869 646.569 369.525V493.633C646.569 499.29 641.99 503.869 636.334 503.869H593.034C587.377 503.869 582.798 508.448 582.798 514.104V672.253C582.798 677.909 578.219 682.488 572.563 682.488H350.307" stroke="#15130b" stroke-width="1.3468" stroke-miterlimit="10"/>
<path d="M582.663 628.618H539.027C533.37 628.618 528.791 624.039 528.791 618.382V575.015C528.791 569.359 524.212 564.779 518.555 564.779H343.37C337.714 564.779 333.135 569.359 333.135 575.015L333.135 645.352C333.135 651.008 328.555 655.587 322.899 655.587L225.66 655.587C220.003 655.587 215.424 660.167 215.424 665.823V716.227C215.424 721.884 210.845 726.463 205.188 726.463L63.7406 726.463" stroke="#15130b" stroke-width="1.3468" stroke-miterlimit="10"/>
<path d="M1345.49 753.365H1222.33C1216.67 753.365 1212.09 748.786 1212.09 743.13V628.887C1212.09 623.231 1207.51 618.651 1201.86 618.651H1097.55C1091.89 618.651 1087.31 614.072 1087.31 608.416V548.045C1087.31 542.389 1082.73 537.81 1077.07 537.81H1023.51" stroke="#15130b" stroke-width="1.3468" stroke-miterlimit="10"/>
<path d="M1212.12 709.426H996.94C991.283 709.426 986.704 704.847 986.704 699.19V655.89C986.704 650.234 982.125 645.655 976.468 645.655H727.613C721.957 645.655 717.378 641.076 717.378 635.419V585.049C717.378 579.392 721.957 574.813 727.613 574.813H770.913C776.569 574.813 781.149 579.392 781.149 585.049V608.483C781.149 614.14 785.728 618.719 791.384 618.719H871.889" stroke="#15130b" stroke-width="1.3468" stroke-miterlimit="10"/>
<path d="M1256.06 726.428V584.98C1256.06 579.323 1251.49 574.744 1245.83 574.744H1222.33C1216.67 574.744 1212.09 570.165 1212.09 564.509V514.071C1212.09 508.414 1207.51 503.835 1201.86 503.835H989.802C984.145 503.835 979.566 508.414 979.566 514.071V581.546C979.566 587.202 974.987 591.781 969.33 591.781H844.886" stroke="#15130b" stroke-width="1.3468" stroke-miterlimit="10"/>
<path d="M1175.26 682.488H1033.81C1028.15 682.488 1023.57 677.909 1023.57 672.253V628.886C1023.57 623.229 1018.99 618.65 1013.34 618.65H925.761" stroke="#15130b" stroke-width="1.3468" stroke-miterlimit="10"/>
<path d="M1050.51 0.873609V116.564C1050.51 122.22 1045.93 126.8 1040.27 126.8H952.967C947.31 126.8 942.731 131.379 942.731 137.035V366.092C942.731 371.749 938.152 376.328 932.495 376.328L855.122 376.328C849.465 376.328 844.886 380.907 844.886 386.564V500.739C844.886 506.395 840.307 510.975 834.65 510.975L771.149 510.975" stroke="#15130b" stroke-width="1.3468" stroke-miterlimit="10"/>
<path d="M1148.32 332.32H1070.68C1065.02 332.32 1060.44 336.899 1060.44 342.556V392.994C1060.44 398.65 1055.86 403.229 1050.21 403.229L909.027 403.229C903.371 403.229 898.792 407.809 898.792 413.465V503.869" stroke="#15130b" stroke-width="1.3468" stroke-miterlimit="10"/>
<path d="M1006.57 126.765V170.402C1006.57 176.058 1001.99 180.637 996.334 180.637H979.903C974.246 180.637 969.667 185.216 969.667 190.873L969.667 369.189" stroke="#15130b" stroke-width="1.3468" stroke-miterlimit="10"/>
<path d="M1222.06 0.873584V62.6918C1222.06 68.3484 1217.48 72.9274 1211.82 72.9274H1097.58C1091.92 72.9274 1087.34 77.5065 1087.34 83.1631V197.406C1087.34 203.062 1082.76 207.641 1077.11 207.641H1016.74C1011.08 207.641 1006.5 212.22 1006.5 217.877V268.584" stroke="#15130b" stroke-width="1.3468" stroke-miterlimit="10"/>
<path d="M1148.32 268.517H1104.68C1099.03 268.517 1094.45 273.096 1094.45 278.753V285.251C1094.45 290.908 1089.87 295.487 1084.21 295.487H1016.77C1011.11 295.487 1006.54 300.066 1006.54 305.722V332.355" stroke="#15130b" stroke-width="1.3468" stroke-miterlimit="10"/>
<path d="M1248.99 160.773V268.214C1248.99 273.87 1244.41 278.449 1238.76 278.449H1205.32C1199.67 278.449 1195.09 283.028 1195.09 288.685V456.799C1195.09 462.456 1190.51 467.035 1184.85 467.035L979.599 467.035" stroke="#15130b" stroke-width="1.3468" stroke-miterlimit="10"/>
<path d="M1248.99 197.642H1205.36C1199.7 197.642 1195.12 202.221 1195.12 207.877V231.379C1195.12 237.036 1190.54 241.615 1184.89 241.615H1178.39C1172.73 241.615 1168.15 246.194 1168.15 251.85L1168.15 376.295" stroke="#15130b" stroke-width="1.3468" stroke-miterlimit="10"/>
<path d="M1328.19 493.938H1249.26C1243.61 493.938 1239.03 489.358 1239.03 483.702V359.527C1239.03 353.87 1234.45 349.291 1228.79 349.291L1195.09 349.291" stroke="#15130b" stroke-width="1.3468" stroke-miterlimit="10"/>
<path d="M754.212 800.873V719.661C754.212 714.004 749.633 709.425 743.976 709.425H666.602C660.946 709.425 656.367 704.846 656.367 699.19V575.014C656.367 569.358 651.788 564.779 646.131 564.779H582.629" stroke="#15130b" stroke-width="1.3468" stroke-miterlimit="10"/>
<path d="M825.087 800.873V736.664C825.087 731.008 829.666 726.429 835.323 726.429L915.525 726.429C921.182 726.429 925.761 721.849 925.761 716.193V645.621" stroke="#15130b" stroke-width="1.3468" stroke-miterlimit="10"/>
<path d="M925.761 682.859H885.66C880.003 682.859 875.424 687.438 875.424 693.095V699.256C875.424 704.913 870.845 709.492 865.188 709.492H801.283C795.626 709.492 791.047 704.913 791.047 699.256V682.826C791.047 677.169 786.468 672.59 780.811 672.59L700.576 672.59C694.919 672.59 690.34 668.011 690.34 662.354V548.112C690.34 542.455 685.761 537.876 680.104 537.876H609.532" stroke="#15130b" stroke-width="1.3468" stroke-miterlimit="10"/>
<path d="M737.209 547.809V487.169C737.209 481.512 732.63 476.933 726.973 476.933H700.61C694.953 476.933 690.374 472.354 690.374 466.697V396.394C690.374 390.738 694.953 386.159 700.61 386.159H707.108C712.765 386.159 717.344 390.738 717.344 396.394V419.896C717.344 425.553 721.923 430.132 727.579 430.132H771.216" stroke="#15130b" stroke-width="1.3468" stroke-miterlimit="10"/>
<path d="M619.532 584.678V716.227C619.532 721.884 614.953 726.463 609.297 726.463H521.99C516.334 726.463 511.755 721.884 511.755 716.227V709.729C511.755 704.072 507.175 699.493 501.519 699.493H457.882" stroke="#15130b" stroke-width="1.3468" stroke-miterlimit="10"/>
<path d="M467.849 780.672V746.598C467.849 740.941 463.27 736.362 457.613 736.362H306.502C300.845 736.362 296.266 731.783 296.266 726.126V709.695C296.266 704.039 291.687 699.46 286.03 699.46H215.458" stroke="#15130b" stroke-width="1.3468" stroke-miterlimit="10"/>
<path d="M494.784 564.812V591.445C494.784 597.102 490.205 601.681 484.549 601.681H451.114C445.458 601.681 440.879 606.26 440.879 611.917V640.368C440.879 646.024 436.299 650.604 430.643 650.604H387.006" stroke="#15130b" stroke-width="1.3468" stroke-miterlimit="10"/>
<path d="M413.977 601.681V618.381C413.977 624.038 409.397 628.617 403.741 628.617H397.243C391.586 628.617 387.007 624.038 387.007 618.381V594.88C387.007 589.223 382.428 584.644 376.771 584.644H370.273C364.616 584.644 360.037 589.223 360.037 594.88V650.604" stroke="#15130b" stroke-width="1.3468" stroke-miterlimit="10"/>
<path d="M1184.52 617.641V594.947C1184.52 589.29 1179.94 584.711 1174.28 584.711H1124.55C1118.89 584.711 1114.31 580.132 1114.31 574.476V548.179C1114.31 542.523 1118.89 537.944 1124.55 537.944H1147.98C1153.64 537.944 1158.22 533.365 1158.22 527.708V503.937" stroke="#15130b" stroke-width="1.3468" stroke-miterlimit="10"/>
<path d="M771.384 424.407C768.13 424.407 765.492 427.045 765.492 430.299C765.492 433.553 768.13 436.191 771.384 436.191C774.638 436.191 777.276 433.553 777.276 430.299C777.276 427.045 774.638 424.407 771.384 424.407Z" fill="#15130b"/>
<path d="M737.208 541.749C733.954 541.749 731.316 544.387 731.316 547.641C731.316 550.895 733.954 553.533 737.208 553.533C740.463 553.533 743.101 550.895 743.101 547.641C743.101 544.387 740.463 541.749 737.208 541.749Z" fill="#15130b"/>
<path d="M771.215 505.048C767.961 505.048 765.323 507.686 765.323 510.94C765.323 514.194 767.961 516.832 771.215 516.832C774.469 516.832 777.107 514.194 777.107 510.94C777.107 507.686 774.469 505.048 771.215 505.048Z" fill="#15130b"/>
<path d="M898.825 498.987C895.57 498.987 892.932 501.625 892.932 504.879C892.932 508.133 895.57 510.771 898.825 510.771C902.079 510.771 904.717 508.133 904.717 504.879C904.717 501.625 902.079 498.987 898.825 498.987Z" fill="#15130b"/>
<path d="M979.633 460.94C976.379 460.94 973.741 463.578 973.741 466.832C973.741 470.087 976.379 472.725 979.633 472.725C982.887 472.725 985.525 470.087 985.525 466.832C985.525 463.578 982.887 460.94 979.633 460.94Z" fill="#15130b"/>
<path d="M1148.32 326.258C1145.07 326.258 1142.43 328.897 1142.43 332.151C1142.43 335.405 1145.07 338.043 1148.32 338.043C1151.57 338.043 1154.21 335.405 1154.21 332.151C1154.21 328.897 1151.57 326.258 1148.32 326.258Z" fill="#15130b"/>
<path d="M1148.32 262.624C1145.07 262.624 1142.43 265.262 1142.43 268.516C1142.43 271.77 1145.07 274.408 1148.32 274.408C1151.57 274.408 1154.21 271.77 1154.21 268.516C1154.21 265.262 1151.57 262.624 1148.32 262.624Z" fill="#15130b"/>
<path d="M1195.12 343.43C1191.87 343.43 1189.23 346.068 1189.23 349.323C1189.23 352.577 1191.87 355.215 1195.12 355.215C1198.38 355.215 1201.01 352.577 1201.01 349.323C1201.01 346.068 1198.38 343.43 1195.12 343.43Z" fill="#15130b"/>
<path d="M1168.18 369.356C1164.93 369.356 1162.29 371.994 1162.29 375.248C1162.29 378.503 1164.93 381.141 1168.18 381.141C1171.44 381.141 1174.08 378.503 1174.08 375.248C1174.08 371.994 1171.44 369.356 1168.18 369.356Z" fill="#15130b"/>
<path d="M1158.08 497.977C1154.83 497.977 1152.19 500.615 1152.19 503.869C1152.19 507.124 1154.83 509.762 1158.08 509.762C1161.34 509.762 1163.98 507.124 1163.98 503.869C1163.98 500.615 1161.34 497.977 1158.08 497.977Z" fill="#15130b"/>
<path d="M1023.4 531.983C1020.15 531.983 1017.51 534.621 1017.51 537.875C1017.51 541.13 1020.15 543.768 1023.4 543.768C1026.66 543.768 1029.3 541.13 1029.3 537.875C1029.3 534.621 1026.66 531.983 1023.4 531.983Z" fill="#15130b"/>
<path d="M1184.68 611.782C1181.43 611.782 1178.79 614.42 1178.79 617.674C1178.79 620.928 1181.43 623.566 1184.68 623.566C1187.94 623.566 1190.58 620.928 1190.58 617.674C1190.58 614.42 1187.94 611.782 1184.68 611.782Z" fill="#15130b"/>
<path d="M1175.26 677.102C1172 677.102 1169.36 679.74 1169.36 682.994C1169.36 686.249 1172 688.887 1175.26 688.887C1178.51 688.887 1181.15 686.249 1181.15 682.994C1181.15 679.74 1178.51 677.102 1175.26 677.102Z" fill="#15130b"/>
<path d="M1256.06 720.536C1252.81 720.536 1250.17 723.174 1250.17 726.428C1250.17 729.682 1252.81 732.32 1256.06 732.32C1259.32 732.32 1261.96 729.682 1261.96 726.428C1261.96 723.174 1259.32 720.536 1256.06 720.536Z" fill="#15130b"/>
<path d="M1211.96 703.364C1208.7 703.364 1206.06 706.002 1206.06 709.256C1206.06 712.51 1208.7 715.148 1211.96 715.148C1215.21 715.148 1217.85 712.51 1217.85 709.256C1217.85 706.002 1215.21 703.364 1211.96 703.364Z" fill="#15130b"/>
<path d="M1248.99 191.579C1245.74 191.579 1243.1 194.217 1243.1 197.471C1243.1 200.725 1245.74 203.363 1248.99 203.363C1252.25 203.363 1254.89 200.725 1254.89 197.471C1254.89 194.217 1252.25 191.579 1248.99 191.579Z" fill="#15130b"/>
<path d="M1248.99 154.88C1245.74 154.88 1243.1 157.518 1243.1 160.772C1243.1 164.026 1245.74 166.664 1248.99 166.664C1252.25 166.664 1254.89 164.026 1254.89 160.772C1254.89 157.518 1252.25 154.88 1248.99 154.88Z" fill="#15130b"/>
<path d="M869.532 612.792C866.277 612.792 863.639 615.43 863.639 618.684C863.639 621.938 866.277 624.576 869.532 624.576C872.786 624.576 875.424 621.938 875.424 618.684C875.424 615.43 872.786 612.792 869.532 612.792Z" fill="#15130b"/>
<path d="M844.952 585.182C841.698 585.182 839.06 587.82 839.06 591.075C839.06 594.329 841.698 596.967 844.952 596.967C848.207 596.967 850.845 594.329 850.845 591.075C850.845 587.82 848.207 585.182 844.952 585.182Z" fill="#15130b"/>
<path d="M925.761 677.102C922.507 677.102 919.869 679.74 919.869 682.994C919.869 686.249 922.507 688.887 925.761 688.887C929.015 688.887 931.653 686.249 931.653 682.994C931.653 679.74 929.015 677.102 925.761 677.102Z" fill="#15130b"/>
<path d="M925.761 639.727C922.507 639.727 919.869 642.365 919.869 645.619C919.869 648.874 922.507 651.512 925.761 651.512C929.015 651.512 931.653 648.874 931.653 645.619C931.653 642.365 929.015 639.727 925.761 639.727Z" fill="#15130b"/>
<path d="M925.761 612.792C922.507 612.792 919.869 615.43 919.869 618.684C919.869 621.938 922.507 624.576 925.761 624.576C929.015 624.576 931.653 621.938 931.653 618.684C931.653 615.43 929.015 612.792 925.761 612.792Z" fill="#15130b"/>
<path d="M609.599 531.983C606.345 531.983 603.707 534.621 603.707 537.875C603.707 541.13 606.345 543.768 609.599 543.768C612.853 543.768 615.491 541.13 615.491 537.875C615.491 534.621 612.853 531.983 609.599 531.983Z" fill="#15130b"/>
<path d="M582.663 558.919C579.409 558.919 576.771 561.557 576.771 564.811C576.771 568.065 579.409 570.703 582.663 570.703C585.918 570.703 588.556 568.065 588.556 564.811C588.556 561.557 585.918 558.919 582.663 558.919Z" fill="#15130b"/>
<path d="M582.663 622.893C579.409 622.893 576.771 625.531 576.771 628.785C576.771 632.04 579.409 634.678 582.663 634.678C585.918 634.678 588.556 632.04 588.556 628.785C588.556 625.531 585.918 622.893 582.663 622.893Z" fill="#15130b"/>
<path d="M494.785 558.919C491.53 558.919 488.892 561.557 488.892 564.811C488.892 568.065 491.53 570.703 494.785 570.703C498.039 570.703 500.677 568.065 500.677 564.811C500.677 561.557 498.039 558.919 494.785 558.919Z" fill="#15130b"/>
<path d="M413.976 595.956C410.722 595.956 408.084 598.594 408.084 601.848C408.084 605.102 410.722 607.74 413.976 607.74C417.23 607.74 419.868 605.102 419.868 601.848C419.868 598.594 417.23 595.956 413.976 595.956Z" fill="#15130b"/>
<path d="M387.04 644.778C383.786 644.778 381.148 647.416 381.148 650.67C381.148 653.924 383.786 656.562 387.04 656.562C390.295 656.562 392.933 653.924 392.933 650.67C392.933 647.416 390.295 644.778 387.04 644.778Z" fill="#15130b"/>
<path d="M360.104 644.778C356.85 644.778 354.212 647.416 354.212 650.67C354.212 653.924 356.85 656.562 360.104 656.562C363.358 656.562 365.996 653.924 365.996 650.67C365.996 647.416 363.358 644.778 360.104 644.778Z" fill="#15130b"/>
<path d="M350.003 676.764C346.749 676.764 344.111 679.402 344.111 682.657C344.111 685.911 346.749 688.549 350.003 688.549C353.257 688.549 355.896 685.911 355.896 682.657C355.896 679.402 353.257 676.764 350.003 676.764Z" fill="#15130b"/>
<path d="M458.084 693.6C454.83 693.6 452.192 696.238 452.192 699.493C452.192 702.747 454.83 705.385 458.084 705.385C461.339 705.385 463.977 702.747 463.977 699.493C463.977 696.238 461.339 693.6 458.084 693.6Z" fill="#15130b"/>
<path d="M215.324 693.6C212.069 693.6 209.431 696.238 209.431 699.493C209.431 702.747 212.069 705.385 215.324 705.385C218.578 705.385 221.216 702.747 221.216 699.493C221.216 696.238 218.578 693.6 215.324 693.6Z" fill="#15130b"/>
<path d="M63.8079 720.536C60.5537 720.536 57.9157 723.174 57.9157 726.428C57.9157 729.682 60.5537 732.32 63.8079 732.32C67.0621 732.32 69.7002 729.682 69.7002 726.428C69.7002 723.174 67.0621 720.536 63.8079 720.536Z" fill="#15130b"/>
<path d="M619.701 578.786C616.446 578.786 613.808 581.424 613.808 584.678C613.808 587.932 616.446 590.57 619.701 590.57C622.955 590.57 625.593 587.932 625.593 584.678C625.593 581.424 622.955 578.786 619.701 578.786Z" fill="#15130b"/>
<path d="M1006.57 120.536C1003.31 120.536 1000.68 123.174 1000.68 126.428C1000.68 129.682 1003.31 132.32 1006.57 132.32C1009.82 132.32 1012.46 129.682 1012.46 126.428C1012.46 123.174 1009.82 120.536 1006.57 120.536Z" fill="#15130b"/>
<path d="M1006.57 262.624C1003.31 262.624 1000.68 265.262 1000.68 268.516C1000.68 271.77 1003.31 274.408 1006.57 274.408C1009.82 274.408 1012.46 271.77 1012.46 268.516C1012.46 265.262 1009.82 262.624 1006.57 262.624Z" fill="#15130b"/>
<path d="M1006.57 326.596C1003.31 326.596 1000.68 329.234 1000.68 332.489C1000.68 335.743 1003.31 338.381 1006.57 338.381C1009.82 338.381 1012.46 335.743 1012.46 332.489C1012.46 329.234 1009.82 326.596 1006.57 326.596Z" fill="#15130b"/>
<path d="M969.532 363.298C966.277 363.298 963.639 365.936 963.639 369.19C963.639 372.444 966.277 375.082 969.532 375.082C972.786 375.082 975.424 372.444 975.424 369.19C975.424 365.936 972.786 363.298 969.532 363.298Z" fill="#15130b"/>
</g>
<defs>
<clipPath id="clip0_11_296">
<rect width="1381.85" height="800" fill="white" transform="matrix(-1 0 0 -1 1381.86 800.873)"/>
</clipPath>
</defs>
</svg>
